<svg xmlns="http://www.w3.org/2000/svg" viewBox="0 0 24 24" fill="currentColor">
    <defs>
        <style>.cls-1{fill:#fff;}</style>
    </defs>
    <g id="Layer_2" data-name="Layer 2">
        <circle class="cls-1" cx="12" cy="12" r="11.23" />
    </g>
    <g id="Layer_1" data-name="Layer 1">
        <path
            d="M11.94,0A12,12,0,1,0,12,0Zm5,7.22a.83.83,0,0,1,.46.14.49.49,0,0,1,.17.33,1.71,1.71,0,0,1,0,.47c-.18,1.9-1,6.5-1.36,8.63-.17.9-.5,1.2-.82,1.23-.69.06-1.22-.46-1.9-.9-1.05-.7-1.65-1.13-2.68-1.8-1.18-.78-.41-1.21.26-1.91.18-.19,3.25-3,3.31-3.23a.26.26,0,0,0-.06-.22.28.28,0,0,0-.25,0Q13.91,10,9,13.29a2.25,2.25,0,0,1-1.3.48,9.07,9.07,0,0,1-1.86-.44c-.76-.25-1.35-.38-1.3-.79,0-.22.32-.44.89-.67,3.5-1.52,5.83-2.53,7-3C15.76,7.47,16.46,7.23,16.91,7.22Z"
            transform="translate(0 0)" />
    </g>
</svg>